<?xml version="1.0" standalone="no"?>
<!DOCTYPE svg PUBLIC "-//W3C//DTD SVG 20010904//EN"
 "http://www.w3.org/TR/2001/REC-SVG-20010904/DTD/svg10.dtd">
<svg version="1.0" xmlns="http://www.w3.org/2000/svg"
 width="398.000000pt" height="398.000000pt" viewBox="0 0 398.000000 398.000000"
 preserveAspectRatio="xMidYMid meet">
<metadata>
Created by potrace 1.11, written by Peter Selinger 2001-2013
</metadata>
<g transform="translate(0.000000,398.000000) scale(0.100000,-0.100000)"
fill="#000000" stroke="none">
<path d="M0 1990 l0 -1990 1990 0 1990 0 0 1990 0 1990 -1990 0 -1990 0 0
-1990z m2488 1423 l-68 -4 0 -44 0 -45 46 0 c33 0 51 -5 63 -19 14 -16 38 -19
164 -26 l147 -7 0 -69 0 -69 75 0 75 0 0 -140 0 -140 70 0 70 0 0 -145 0 -145
69 0 69 0 6 -272 c3 -150 4 -307 2 -348 -2 -41 -5 -112 -5 -157 l-1 -83 -70 0
-70 0 0 -147 0 -148 -67 0 -68 0 -3 -142 -3 -142 -72 -3 -72 -3 0 -68 0 -67
-72 0 -73 0 0 -70 0 -69 -72 -3 -73 -3 -3 -60 c-1 -33 -4 -66 -7 -72 -3 -10
-40 -13 -140 -13 l-135 0 0 -70 0 -70 -360 0 -360 0 0 64 c0 78 4 76 -167 76
l-123 0 0 70 0 70 -70 0 -70 0 0 146 0 146 -69 -4 -69 -3 -7 281 c-4 155 -4
352 0 438 l7 156 69 0 68 0 3 142 3 142 68 -3 67 -2 0 109 c0 60 3 157 7 215
l6 107 69 0 68 0 0 75 0 75 70 0 70 0 0 140 0 139 71 3 72 3 1 70 1 70 68 2
c38 0 70 3 73 6 2 2 5 34 7 70 l2 67 355 -2 c195 -1 325 -3 288 -5z m-8 -23
c-8 -5 -24 -9 -35 -9 l-20 0 20 9 c11 5 27 9 35 9 13 1 13 0 0 -9z m66 -22
c-2 -24 -8 -34 -22 -35 -10 -2 -13 0 -6 3 24 11 11 24 -25 26 l-38 1 38 4 c24
3 37 9 37 19 0 8 4 14 9 14 5 0 8 -15 7 -32z m-86 -28 c13 -8 13 -10 -2 -10
-9 0 -20 5 -23 10 -8 13 5 13 25 0z m-1020 -364 c0 -3 -4 -8 -10 -11 -5 -3
-10 -1 -10 4 0 6 5 11 10 11 6 0 10 -2 10 -4z"/>
<path d="M2420 3295 c0 -8 4 -15 9 -15 5 0 14 7 21 15 10 13 9 15 -9 15 -12 0
-21 -6 -21 -15z"/>
<path d="M2470 3293 c0 -15 2 -16 10 -3 6 10 10 11 10 3 0 -7 4 -13 10 -13 5
0 7 7 4 15 -8 21 -34 19 -34 -2z"/>
<path d="M1980 2920 l0 -70 -70 0 -69 0 -3 -72 -3 -73 -66 -3 -66 -3 -7 -106
c-3 -58 -6 -129 -7 -157 0 -28 -3 -45 -6 -38 -3 7 -26 12 -62 12 l-58 0 -6
-107 c-4 -58 -7 -153 -7 -210 l0 -103 -70 0 -70 0 0 -103 c0 -57 -3 -157 -6
-223 l-7 -119 -63 5 -64 5 0 -75 0 -75 64 5 64 5 7 -147 7 -148 69 0 69 0 0
-69 0 -69 148 -7 147 -7 -3 -64 -4 -64 72 0 72 0 -4 64 -3 64 148 7 147 7 0
69 0 68 72 3 72 3 0 67 1 68 68 0 c45 0 69 4 72 13 3 6 6 71 8 142 l2 130 68
0 67 0 0 75 c0 46 5 81 12 88 7 7 30 11 52 10 l41 -1 -45 -7 -45 -7 61 -1 61
-2 6 212 c9 268 9 541 0 686 l-6 112 -67 0 -67 0 1 68 1 67 -73 3 -72 3 0 69
0 70 -290 0 -290 0 0 -70z m-293 -562 c-3 -8 -6 -5 -6 6 -1 11 2 17 5 13 3 -3
4 -12 1 -19z m1096 -535 c-13 -2 -35 -2 -50 0 -16 2 -5 4 22 4 28 0 40 -2 28
-4z m44 -65 c-2 -13 -4 -5 -4 17 -1 22 1 32 4 23 2 -10 2 -28 0 -40z m-110
-20 c-3 -8 -6 -5 -6 6 -1 11 2 17 5 13 3 -3 4 -12 1 -19z m-794 -775 c-7 -2
-19 -2 -25 0 -7 3 -2 5 12 5 14 0 19 -2 13 -5z"/>
</g>
</svg>
